<svg xmlns="http://www.w3.org/2000/svg" xmlns:xlink="http://www.w3.org/1999/xlink" width="7" height="7" viewBox="0 0 7 7"><defs><clipPath id="a"><path d="M3.5,2.263,1.438.242,1.417.222,1.381.191,1.358.173A.852.852,0,0,0,.249.242a.825.825,0,0,0,0,1.181l2.657,2.6.021.019.036.031.022.018a.852.852,0,0,0,1.109-.069l2.657-2.6.02-.021L6.8,1.367l.019-.022a.824.824,0,0,0-.07-1.1L6.73.222,6.694.191,6.672.173A.852.852,0,0,0,5.562.242Z" transform="translate(0 0)" fill="#393738"/></clipPath></defs><g transform="translate(0 1.365)"><path d="M3.5,2.263,1.438.242,1.417.222,1.381.191,1.358.173A.852.852,0,0,0,.249.242a.825.825,0,0,0,0,1.181l2.657,2.6.021.019.036.031.022.018a.852.852,0,0,0,1.109-.069l2.657-2.6.02-.021L6.8,1.367l.019-.022a.824.824,0,0,0-.07-1.1L6.73.222,6.694.191,6.672.173A.852.852,0,0,0,5.562.242Z" transform="translate(0 0)" fill="#393738"/><g clip-path="url(#a)"><g transform="translate(0 -1.365)"><rect width="7" height="7" fill="#fff"/></g></g></g></svg>