<svg id="Group_8" data-name="Group 8" xmlns="http://www.w3.org/2000/svg" width="16" height="15.999" viewBox="0 0 16 15.999">
  <path id="Combined_Shape" data-name="Combined Shape" d="M9.6,13.6a2.39,2.39,0,0,1,.137-.8H6.262a2.4,2.4,0,1,1-4.415-.261,1.605,1.605,0,0,1-.332-2.38l.085-.091L3.131,8.537,1.938,2.569l0-.022L1.744,1.6H.8A.8.8,0,0,1,.005.893L0,.8A.8.8,0,0,1,.707.005L.8,0H2.4A.8.8,0,0,1,3.16.552l.024.091.191.957H15.2a.8.8,0,0,1,.752,1.073l-.037.085-3.2,6.4a.8.8,0,0,1-.616.436L12,9.6H4.331l-1.6,1.6H12a2.4,2.4,0,1,1-2.4,2.4Zm1.6,0a.8.8,0,1,0,.8-.8A.8.8,0,0,0,11.2,13.6Zm-8,0a.8.8,0,1,0,.8-.8A.8.8,0,0,0,3.2,13.6ZM11.5,8l2.4-4.8H3.7L4.655,8Z" fill="#393738"/>
</svg>
