<svg xmlns="http://www.w3.org/2000/svg" xmlns:xlink="http://www.w3.org/1999/xlink" width="9" height="9" viewBox="0 0 9 9"><defs><clipPath id="a"><path d="M8.944,4.215a.749.749,0,0,0-.158-.247L5.035.22A.753.753,0,1,0,3.969,1.285L6.445,3.75H.75a.749.749,0,1,0,0,1.5H6.445L3.969,7.714A.753.753,0,1,0,5.035,8.778L8.786,5.031a.774.774,0,0,0,.158-.817Z" transform="translate(0 0)" fill="#393738"/></clipPath></defs><g transform="translate(0 0)"><path d="M8.944,4.215a.749.749,0,0,0-.158-.247L5.035.22A.753.753,0,1,0,3.969,1.285L6.445,3.75H.75a.749.749,0,1,0,0,1.5H6.445L3.969,7.714A.753.753,0,1,0,5.035,8.778L8.786,5.031a.774.774,0,0,0,.158-.817Z" transform="translate(0 0)" fill="#393738"/><g clip-path="url(#a)"><g transform="translate(0 0)"><rect width="9" height="9" fill="#fff"/></g></g></g></svg>