<svg xmlns="http://www.w3.org/2000/svg" width="14.939" height="16" viewBox="0 0 14.939 16">
  <g id="Group_31" data-name="Group 31" transform="translate(0)">
    <path id="Combined_Shape" data-name="Combined Shape" d="M2.49,16A2.449,2.449,0,0,1,0,13.6V8.8A2.449,2.449,0,0,1,2.49,6.4h.83V4A4.081,4.081,0,0,1,7.47,0a4.081,4.081,0,0,1,4.15,4V6.4h.83a2.449,2.449,0,0,1,2.49,2.4v4.8a2.449,2.449,0,0,1-2.49,2.4ZM1.66,8.8v4.8a.816.816,0,0,0,.83.8h9.959a.816.816,0,0,0,.83-.8V8.8a.816.816,0,0,0-.83-.8H2.49A.816.816,0,0,0,1.66,8.8Zm8.3-2.4V4A2.441,2.441,0,0,0,7.616,1.6l-.146,0A2.449,2.449,0,0,0,4.98,4V6.4ZM6.645,12.093,6.64,12V10.4a.832.832,0,0,1,1.654-.093L8.3,10.4V12a.832.832,0,0,1-1.654.093Z" transform="translate(0)" fill="#393738"/>
  </g>
</svg>
